<?xml version="1.0" encoding="UTF-8" standalone="no"?>
<!-- Created with Inkscape (http://www.inkscape.org/) -->

<svg
   width="512"
   height="512"
   id="svg2"
   version="1.1"
   inkscape:version="1.4.2 (f4327f4, 2025-05-13)"
   sodipodi:docname="icon.svg"
   inkscape:export-filename="C:\Users\Gerard\Documents\Projects\artwork\artwork\motto\gbraad-peek-shadow-1024.png"
   inkscape:export-xdpi="180"
   inkscape:export-ydpi="180"
   xmlns:inkscape="http://www.inkscape.org/namespaces/inkscape"
   xmlns:sodipodi="http://sodipodi.sourceforge.net/DTD/sodipodi-0.dtd"
   xmlns="http://www.w3.org/2000/svg"
   xmlns:svg="http://www.w3.org/2000/svg"
   xmlns:rdf="http://www.w3.org/1999/02/22-rdf-syntax-ns#"
   xmlns:cc="http://creativecommons.org/ns#"
   xmlns:dc="http://purl.org/dc/elements/1.1/">
  <defs
     id="defs4">
    <filter
       y="-0.10106035"
       height="1.2021207"
       inkscape:menu-tooltip="Darkens the edge with an inner blur and adds a flexible glow"
       inkscape:menu="Shadows and Glows"
       inkscape:label="Dark And Glow"
       style="color-interpolation-filters:sRGB"
       id="filter3499"
       x="-0.10106035"
       width="1.2021207">
      <feGaussianBlur
         stdDeviation="5"
         result="result6"
         id="feGaussianBlur3501" />
      <feComposite
         result="result8"
         in="SourceGraphic"
         operator="atop"
         in2="result6"
         id="feComposite3503" />
      <feComposite
         result="result9"
         operator="over"
         in2="SourceAlpha"
         in="result8"
         id="feComposite3505" />
      <feColorMatrix
         values="1 0 0 0 0 0 1 0 0 0 0 0 1 0 0 0 0 0 1 0 "
         result="result10"
         id="feColorMatrix3507" />
      <feBlend
         in="result10"
         mode="normal"
         in2="result6"
         id="feBlend3509" />
    </filter>
    <filter
       style="color-interpolation-filters:sRGB"
       inkscape:label="Drop Shadow"
       id="filter5855"
       x="-0.063015386"
       y="-0.053065587"
       width="1.1785436"
       height="1.1503525">
      <feFlood
         flood-opacity="0.498039"
         flood-color="rgb(0,0,0)"
         result="flood"
         id="feFlood5857" />
      <feComposite
         in="flood"
         in2="SourceGraphic"
         operator="in"
         result="composite1"
         id="feComposite5859" />
      <feGaussianBlur
         in="composite1"
         stdDeviation="3"
         result="blur"
         id="feGaussianBlur5861" />
      <feOffset
         dx="6"
         dy="6"
         result="offset"
         id="feOffset5863" />
      <feComposite
         in="SourceGraphic"
         in2="offset"
         operator="over"
         result="composite2"
         id="feComposite5865" />
    </filter>
    <filter
       inkscape:menu-tooltip="In and out glow with a possible offset and colorizable flood"
       inkscape:menu="Shadows and Glows"
       inkscape:label="Cutout Glow"
       style="color-interpolation-filters:sRGB;"
       id="filter17"
       x="-0.033236946"
       y="-0.0287717"
       width="1.0803226"
       height="1.0695316">
      <feOffset
         dy="3"
         dx="3"
         id="feOffset17" />
      <feGaussianBlur
         stdDeviation="3"
         result="blur"
         id="feGaussianBlur17" />
      <feFlood
         flood-color="rgb(0,0,0)"
         flood-opacity="1"
         result="flood"
         id="feFlood17" />
      <feComposite
         in="flood"
         in2="SourceGraphic"
         operator="in"
         result="composite"
         id="feComposite17" />
      <feBlend
         in="blur"
         in2="composite"
         mode="normal"
         id="feBlend17" />
    </filter>
    <filter
       y="-0.047952834"
       height="1.0959057"
       inkscape:menu-tooltip="Darkens the edge with an inner blur and adds a flexible glow"
       inkscape:menu="Shadows and Glows"
       inkscape:label="Dark and Glow"
       style="color-interpolation-filters:sRGB;"
       id="filter19"
       x="-0.05539491"
       width="1.1107898">
      <feGaussianBlur
         stdDeviation="5"
         result="result6"
         id="feGaussianBlur18" />
      <feComposite
         result="result8"
         in="SourceGraphic"
         operator="atop"
         in2="result6"
         id="feComposite18" />
      <feComposite
         result="result9"
         operator="over"
         in2="SourceAlpha"
         in="result8"
         id="feComposite19" />
      <feColorMatrix
         values="1 0 0 0 0 0 1 0 0 0 0 0 1 0 0 0 0 0 1 0 "
         result="result10"
         id="feColorMatrix19" />
      <feBlend
         in="result10"
         mode="normal"
         in2="result6"
         id="feBlend19" />
    </filter>
    <filter
       y="-0.056349281"
       height="1.1126986"
       inkscape:menu-tooltip="Darkens the edge with an inner blur and adds a flexible glow"
       inkscape:menu="Shadows and Glows"
       inkscape:label="Dark and Glow"
       style="color-interpolation-filters:sRGB;"
       id="filter9"
       x="-0.056349285"
       width="1.1126986">
      <feGaussianBlur
         stdDeviation="5"
         result="result6"
         id="feGaussianBlur8" />
      <feComposite
         result="result8"
         in="SourceGraphic"
         operator="atop"
         in2="result6"
         id="feComposite8" />
      <feComposite
         result="result9"
         operator="over"
         in2="SourceAlpha"
         in="result8"
         id="feComposite9" />
      <feColorMatrix
         values="1 0 0 0 0 0 1 0 0 0 0 0 1 0 0 0 0 0 1 0 "
         result="result10"
         id="feColorMatrix9" />
      <feBlend
         in="result10"
         mode="normal"
         in2="result6"
         id="feBlend9" />
    </filter>
  </defs>
  <sodipodi:namedview
     id="base"
     pagecolor="#ffffff"
     bordercolor="#666666"
     borderopacity="1.0"
     inkscape:pageopacity="0.0"
     inkscape:pageshadow="2"
     inkscape:zoom="1.4"
     inkscape:cx="327.85714"
     inkscape:cy="294.64286"
     inkscape:document-units="px"
     inkscape:current-layer="layer1"
     showgrid="false"
     units="px"
     inkscape:window-width="1920"
     inkscape:window-height="1057"
     inkscape:window-x="-8"
     inkscape:window-y="-8"
     inkscape:window-maximized="1"
     showguides="false"
     inkscape:showpageshadow="2"
     inkscape:pagecheckerboard="0"
     inkscape:deskcolor="#d1d1d1" />
  <metadata
     id="metadata7">
    <rdf:RDF>
      <cc:Work
         rdf:about="">
        <dc:format>image/svg+xml</dc:format>
        <dc:type
           rdf:resource="http://purl.org/dc/dcmitype/StillImage" />
      </cc:Work>
    </rdf:RDF>
  </metadata>
  <g
     inkscape:label="Layer 1"
     inkscape:groupmode="layer"
     id="layer1"
     transform="translate(0,-1015.3622)">
    <circle
       r="252.63791"
       cy="1271.3619"
       cx="256"
       inkscape:export-ydpi="90.709999"
       inkscape:export-xdpi="90.709999"
       inkscape:export-filename="/home/gbraad/Projects/B2G-FxOS-hardware-system/style/icons/icon_512.png"
       id="path2989-9"
       style="fill:#b3b3b3;fill-opacity:1;stroke:#000000;stroke-width:3.5;stroke-miterlimit:4;stroke-dasharray:none;stroke-dashoffset:0;stroke-opacity:1" />
    <circle
       transform="matrix(3.3485856,0,0,3.3485856,-64.356803,-1591.3838)"
       r="59.621181"
       cy="854.91205"
       cx="95.669289"
       id="path3759-5"
       style="fill:#000000;fill-opacity:1;stroke:#000000;stroke-width:0.10135;stroke-miterlimit:4;stroke-dasharray:none;stroke-dashoffset:0;stroke-opacity:1;filter:url(#filter3499)" />
    <path
       style="font-size:213.333px;line-height:1.25;font-family:Ebrima;-inkscape-font-specification:Ebrima;fill:#ff8c00;filter:url(#filter9)"
       d="m 353.78081,1173.6856 q 5.83333,5.8333 7.70833,13.5416 1.97916,7.7084 0,15.4167 -1.875,7.6041 -7.70833,13.4375 l -0.10416,0.1041 4.99999,5 q 2.1875,2.1875 2.1875,5.3125 0,3.0208 -2.1875,5.3125 l -37.08327,37.0833 q -2.29167,2.1875 -5.41666,2.1875 -3.02083,0 -5.20833,-2.1875 -3.74999,-3.75 -1.56249,-8.4375 l -29.99996,29.9999 0.52084,0.625 q 1.14583,1.0417 1.14583,2.6042 0,1.5625 -1.14583,2.7083 l -5.20833,5.3125 q -1.14583,1.0417 -2.70833,1.0417 -1.5625,0 -2.60416,-1.0417 l -0.625,-0.625 -50.41659,50.4166 q -3.33332,3.3333 -8.02082,3.3333 -4.58332,0 -7.91665,-3.3333 l -9.68748,9.6875 q -3.64583,3.6458 -8.22916,5.3125 l -30.72912,11.1458 q -1.87499,0.625 -3.33332,-0.7292 -1.35417,-1.4583 -0.72917,-3.3333 l 11.14582,-30.6249 q 1.77083,-4.7917 5.31249,-8.2292 l 9.68748,-9.7916 q -3.22916,-3.2292 -3.22916,-7.9167 0,-4.6875 3.22916,-8.0208 l 50.41659,-50.4166 -1.04167,-1.0417 q -1.14583,-1.1458 -1.14583,-2.7083 0,-1.5625 1.14583,-2.6042 l 5.20833,-5.3125 q 1.14583,-1.1458 2.70833,-1.1458 1.5625,0 2.70833,1.1458 l 1.04166,1.0417 63.95823,-63.8541 q -2.60416,-4.8958 1.35417,-8.8541 3.85416,-3.9583 8.74998,-1.3542 l 0.3125,-0.2083 q 5.83333,-5.9375 13.54165,-7.8125 7.70832,-1.9792 15.31247,0 7.70832,1.875 13.64581,7.8125 z m -10.72914,31.8749 0.10416,-0.1041 q 4.37499,-4.375 4.37499,-10.5208 0,-6.25 -4.37499,-10.625 -4.47916,-4.4792 -10.72915,-4.4792 -6.14582,0 -10.52081,4.4792 h -0.10417 z m -31.77079,-10.6249 -63.7499,63.6457 21.24997,21.25 63.64573,-63.6458 z m -122.08314,122.0831 21.1458,21.25 47.81243,-47.8125 -21.24997,-21.2499 z m -5.31249,37.0833 q 2.1875,-2.1875 2.1875,-5.2083 0,-3.125 -2.1875,-5.3125 -2.18749,-2.2917 -5.31249,-2.2917 -3.12499,0 -5.31249,2.2917 -2.1875,2.1875 -2.1875,5.3125 0,3.0208 2.1875,5.2083 2.1875,2.2916 5.31249,2.2916 3.125,0 5.31249,-2.2916 z"
       id="text2"
       aria-label="🖋️ " />
    <path
       style="font-size:213.333px;line-height:1.25;font-family:Ebrima;-inkscape-font-specification:Ebrima;fill:#ff8c00"
       d="m 353.78081,1173.6856 q 5.83333,5.8333 7.70833,13.5416 1.97916,7.7084 0,15.4167 -1.875,7.6041 -7.70833,13.4375 l -0.10416,0.1041 4.99999,5 q 2.1875,2.1875 2.1875,5.3125 0,3.0208 -2.1875,5.3125 l -37.08327,37.0833 q -2.29167,2.1875 -5.41666,2.1875 -3.02083,0 -5.20833,-2.1875 -3.74999,-3.75 -1.56249,-8.4375 l -29.99996,29.9999 0.52084,0.625 q 1.14583,1.0417 1.14583,2.6042 0,1.5625 -1.14583,2.7083 l -5.20833,5.3125 q -1.14583,1.0417 -2.70833,1.0417 -1.5625,0 -2.60416,-1.0417 l -0.625,-0.625 -50.41659,50.4166 q -3.33332,3.3333 -8.02082,3.3333 -4.58332,0 -7.91665,-3.3333 l -9.68748,9.6875 q -3.64583,3.6458 -8.22916,5.3125 l -30.72912,11.1458 q -1.87499,0.625 -3.33332,-0.7292 -1.35417,-1.4583 -0.72917,-3.3333 l 11.14582,-30.6249 q 1.77083,-4.7917 5.31249,-8.2292 l 9.68748,-9.7916 q -3.22916,-3.2292 -3.22916,-7.9167 0,-4.6875 3.22916,-8.0208 l 50.41659,-50.4166 -1.04167,-1.0417 q -1.14583,-1.1458 -1.14583,-2.7083 0,-1.5625 1.14583,-2.6042 l 5.20833,-5.3125 q 1.14583,-1.1458 2.70833,-1.1458 1.5625,0 2.70833,1.1458 l 1.04166,1.0417 63.95823,-63.8541 q -2.60416,-4.8958 1.35417,-8.8541 3.85416,-3.9583 8.74998,-1.3542 l 0.3125,-0.2083 q 5.83333,-5.9375 13.54165,-7.8125 7.70832,-1.9792 15.31247,0 7.70832,1.875 13.64581,7.8125 z m -10.72914,31.8749 0.10416,-0.1041 q 4.37499,-4.375 4.37499,-10.5208 0,-6.25 -4.37499,-10.625 -4.47916,-4.4792 -10.72915,-4.4792 -6.14582,0 -10.52081,4.4792 h -0.10417 z m -31.77079,-10.6249 -63.7499,63.6457 21.24997,21.25 63.64573,-63.6458 z m -122.08314,122.0831 21.1458,21.25 47.81243,-47.8125 -21.24997,-21.2499 z m -5.31249,37.0833 q 2.1875,-2.1875 2.1875,-5.2083 0,-3.125 -2.1875,-5.3125 -2.18749,-2.2917 -5.31249,-2.2917 -3.12499,0 -5.31249,2.2917 -2.1875,2.1875 -2.1875,5.3125 0,3.0208 2.1875,5.2083 2.1875,2.2916 5.31249,2.2916 3.125,0 5.31249,-2.2916 z"
       id="path8"
       aria-label="🖋️ " />
  </g>
</svg>
